/* XPM */
static char *grey-iconify[] = {
/* width height num_colors chars_per_pixel */
"    14    14        5            1",
/* colors */
". c #929292",
"# c #e7e7e7",
"a c #d4d4d4",
"b c #bdbdbd",
"c c #b2b2b2",
/* pixels */
"..............",
".#############",
".##a#aaaaaab.#",
".#a#aaaababa.#",
".##aaaababab.#",
".#aaaababbbb.#",
".#aaababbbbc.#",
".#aababbbccc.#",
".#ababbbcbcc.#",
".#aabbbcbccc.#",
".#ababbccccc.#",
".#babbcccccc.#",
".#...........#",
".#############"
};
